# xmcd
#
# Track frame offsets:
#	187
#	19895
#	40107
#	63397
#	82070
#	100225
#	117055
#	135342
#	159087
#	182515
#	204282
#
# Disc length: 3070 seconds
#
# Revision: 1
# Processed by: cddbd v1.5.1PL0 Copyright (c) Steve Scherf et al.
# Submitted via: CDex 1.50Beta5
#
DISCID=800bfc0b
DTITLE=村井麻里子 - Truly
DYEAR=1989
DGENRE=Pop
TTITLE0=恋を眠らせない
TTITLE1=瞳でこたえて
TTITLE2=光の中のバレリーナ
TTITLE3=あきらめてあげない
TTITLE4=TO LADY
TTITLE5=どうしようもなく恋愛
TTITLE6=Sweet Magic Town
TTITLE7=Dream On The Table
TTITLE8=夢じゃなくて…恋じゃなくて…
TTITLE9=TWO CANDLES
TTITLE10=Truly
EXTD=
EXTT0=
EXTT1=
EXTT2=
EXTT3=
EXTT4=
EXTT5=
EXTT6=
EXTT7=
EXTT8=
EXTT9=
EXTT10=
PLAYORDER=
